<svg width="57" height="70" viewBox="0 0 57 70" fill="none" xmlns="http://www.w3.org/2000/svg">
<g clip-path="url(#clip0_1625_727)">
<path d="M43.7908 23.3542L43.7877 23.3511" stroke="black" stroke-width="31.8657" stroke-miterlimit="10"/>
<path d="M34.9565 37.9716L34.6428 37.5822L26.0201 26.9416L30.9799 23.1338L39.9542 34.2109L34.9565 37.9716Z" fill="#5DB7E3"/>
<path d="M28.5 70.0001C12.9787 70.0001 0.35199 57.7076 0.35199 42.5973C0.35199 35.9141 2.85291 29.4748 7.39583 24.466L9.89886 21.7055L22.4119 37.1417L21.4309 38.9185C20.8036 40.056 20.4857 41.2918 20.4857 42.5973C20.4857 46.901 24.0813 50.4014 28.5021 50.4014C29.1926 50.4014 29.8789 50.3154 30.542 50.1473C34.0597 49.2517 36.5185 46.1469 36.5185 42.5973C36.5185 40.9065 35.9733 39.2997 34.9439 37.9512L34.8765 37.8651C34.8155 37.7852 34.7544 37.7094 34.6892 37.6336L36.689 36.0535L39.4889 33.6392L39.5942 33.7602C39.7057 33.8934 39.8131 34.0266 39.9205 34.1639L39.9878 34.2479C41.8509 36.6724 42.8361 39.56 42.8361 42.5952C42.8361 48.9402 38.4363 54.4921 32.1398 56.0947C30.9546 56.396 29.7336 56.5477 28.5042 56.5477C20.6015 56.5477 14.1723 50.2887 14.1723 42.5952C14.1723 40.9987 14.4544 39.4125 14.9996 37.9184L9.84413 31.557C7.78108 34.8627 6.67166 38.6726 6.67166 42.5932C6.67166 54.3138 16.4648 63.8477 28.5042 63.8477C36.9227 63.8477 44.6802 59.0541 48.2674 51.6352C49.64 48.7988 50.3368 45.7554 50.3368 42.5932C50.3368 39.7404 49.7684 36.9798 48.6463 34.377C48.5979 34.2664 48.5347 34.1618 48.4569 34.0655L26.0222 6.39425L30.9799 2.58643L53.545 30.4298C53.5913 30.4872 53.6418 30.5405 53.6966 30.5877C53.8334 30.7086 53.9429 30.8561 54.0187 31.0201L54.1745 31.3562C55.8144 34.9037 56.6459 38.6849 56.6459 42.5993C56.6459 46.5137 55.747 50.6002 53.9745 54.2626C51.7325 58.8983 48.2063 62.8271 43.7771 65.6184C39.2258 68.4876 33.9418 70.0042 28.4979 70.0042L28.5 70.0001Z" fill="#5DB7E3"/>
<path d="M14.8522 20.9246C13.2713 20.3712 11.5956 19.7523 10.5935 18.4386C10.0609 17.7398 9.76619 16.8975 9.52831 16.0593C8.0526 10.8681 8.43994 5.37153 8.83992 0C8.78098 2.1109 10.3009 4.01686 12.1661 5.09486C14.0291 6.17285 16.208 6.58684 18.33 7.02131C20.452 7.45579 22.6245 7.95585 24.3991 9.16911C26.6243 10.6898 27.9905 13.229 28.3736 15.8482C28.7568 18.4673 28.2326 21.1582 27.2369 23.6196C26.359 17.6189 21.4961 12.358 15.4585 10.8763C17.149 13.0446 19.452 14.682 21.3066 16.7171C22.835 18.3935 25.077 21.728 23.8918 24.0274C20.8393 23.3245 17.8121 21.9595 14.8522 20.9246Z" fill="#7ABD37"/>
</g>
<defs>
<clipPath id="clip0_1625_727">
<rect width="56.296" height="70" fill="white" transform="translate(0.35199)"/>
</clipPath>
</defs>
</svg>
